<svg id="Layer_1" enable-background="new 0 0 128 128" height="512" viewBox="0 0 128 128" width="512" xmlns="http://www.w3.org/2000/svg"><path d="m55 77.3v16.6h18v-16.6z" fill="#ffa42c"/><path d="m49.8 85.6 14.2 6.4 14.1-6.4c7.6 2.2 12.8 9.1 12.7 17v6.4h-53.7v-6.4c0-7.9 5.2-14.8 12.7-17z" fill="#298aff"/><path d="m49.8 85.6 5.2 12.7 2.3-1.6 6.7-4.7c-.1-.1-9-9.4-9-9.4z" fill="#8a21ed"/><path d="m93.4 61.2c-1 0-1.7-.8-1.8-1.7v-12c0-14.8-12-26.8-26.8-26.8h-1.7c-14.8 0-26.8 12-26.8 26.8v11.1c0 1-.8 1.8-1.8 1.8s-1.8-.8-1.8-1.8v-11.1c0-16.7 13.6-30.3 30.3-30.3h1.7c16.7 0 30.3 13.6 30.3 30.3v12c.1 1-.6 1.7-1.6 1.7z" fill="#490599"/><g fill="#8a21ed"><path d="m64 92c.9.6-3.3-2.3 9 6.3l5.1-12.6-5.1-3.2c-.2.3-9.4 9.8-9 9.5z"/><path d="m82.6 66.2h4.8c3.3 0 6-2.7 6.1-6v-1.5c0-.2 0-.4 0-.6-.3-2.8-2.5-5-5.3-5.4-.3 0-.5 0-.8 0h-3.7z"/><path d="m34.6 58.6v1.5c0 3.3 2.7 6 6 6h4.8l-1.1-13.6h-3.7c-.3 0-.5 0-.8 0-3 .5-5.2 3.1-5.2 6.1z"/></g><path d="m44.3 47.5v12.4c0 2.2.4 4.3 1.1 6.4l.1.3c3.7 10.2 15 15.6 25.2 11.9 5.5-2 9.9-6.3 11.9-11.9l.1-.3c.7-2.1 1.1-4.2 1.1-6.4v-8.9z" fill="#ffa42c"/><path d="m59.7 73.4h-15.1c-3.5 0-6.4-2.9-6.4-6.4v-.9c0-1 .8-1.8 1.8-1.8s1.8.8 1.8 1.8v.9c0 1.6 1.3 2.9 2.9 2.9h15.1c1 0 1.8.8 1.8 1.8s-1 1.7-1.9 1.7z" fill="#490599"/><path d="m66.3 74.5h-4.7c-1.1 0-2-.9-2-2v-1.6c0-1.1.9-2 2-2h4.7c1.1 0 2 .9 2 2v1.6c0 1.1-.9 2-2 2z" fill="#8a21ed"/><path d="m39.8 50.8v1.9h.8 3.7v-5.1c3.6 1.5 7.3 2.7 11 3.6 11.2 2.7 21.6 2.5 28.3 0v1.5h3.7.8v-1.9c0-12.9-10.4-23.3-23.3-23.3h-1.7c-12.8 0-23.3 10.4-23.3 23.3z" fill="#298aff"/></svg>